<svg width="111" height="143" viewBox="0 0 111 143" fill="none" xmlns="http://www.w3.org/2000/svg">
<path d="M106.835 37.3253C106.461 37.377 106.091 37.4373 105.682 37.4373C105.414 37.4373 105.178 37.3823 104.925 37.3612V130.879C104.925 134.219 102.226 136.94 98.9012 136.94H12.049C8.72608 136.94 6.02501 134.218 6.02501 130.879L6.02396 12.181C6.02396 8.83799 8.72611 6.12056 12.0479 6.12056H79.88C77.9133 4.74441 76.8952 2.4266 76.826 0.0601044H12.0493C5.40753 0.0601044 0 5.49714 0 12.1824V130.878C0 137.56 5.40726 143 12.0493 143H98.9015C105.55 143 110.951 137.56 110.951 130.878V39.6895C109.17 39.3799 107.799 38.5131 106.836 37.3251L106.835 37.3253Z" fill="#225883"/>
<path d="M107.935 42.8045C107.924 42.8045 107.9 42.8077 107.872 42.8045H77.2199C75.5242 42.8045 74.1533 41.4463 74.1533 39.7743V3.03219C74.1533 1.75327 74.9665 0.613885 76.1831 0.180551C77.3944 -0.255976 78.7581 0.117132 79.584 1.10434L109.924 37.4676C110.587 38.0257 111 38.8522 111 39.7771C111.002 41.447 109.632 42.8045 107.935 42.8045ZM80.2871 36.744H101.376L80.2871 11.4702V36.744Z" fill="#225883"/>
<path d="M83.2536 94.6368H27.7018C21.0569 94.6368 15.6526 89.1998 15.6526 82.5146V66.2259C15.6526 59.5407 21.0569 54.1037 27.7018 54.1037H83.2509C89.8959 54.1037 95.3002 59.5407 95.3002 66.2259V82.5146C95.3023 89.1998 89.8991 94.6368 83.2542 94.6368H83.2536ZM27.7018 60.1649C24.379 60.1649 21.6779 62.8834 21.6779 66.2254V82.514C21.6779 85.857 24.38 88.5745 27.7018 88.5745H83.2509C86.5738 88.5745 89.2749 85.856 89.2749 82.514V66.2254C89.2749 62.8824 86.5727 60.1649 83.2509 60.1649H27.7018Z" fill="#33691E"/>
<path d="M41.6254 77.106C41.6254 78.2147 41.4867 79.2241 41.2125 80.1332C40.9351 81.0422 40.5222 81.8212 39.9654 82.4701C39.4086 83.1191 38.7089 83.6243 37.8716 83.9826C37.0311 84.343 36.0436 84.5248 34.9048 84.5248C34.39 84.5248 33.8805 84.4973 33.3804 84.4434C32.8772 84.3885 32.3561 84.2976 31.814 84.1708L32.0577 81.4829C32.085 81.2462 32.1817 81.0559 32.3435 80.91C32.5063 80.7642 32.7353 80.6944 33.0337 80.6944C33.1871 80.6944 33.3772 80.7187 33.6031 80.7674C33.829 80.8191 34.1001 80.8403 34.4163 80.8403C34.8586 80.8403 35.2441 80.78 35.5761 80.6553C35.905 80.5338 36.1781 80.3308 36.3956 80.0433C36.612 79.7559 36.7749 79.3796 36.8831 78.9188C36.9913 78.4548 37.0459 77.8798 37.0459 77.2001V64.4353H41.6275L41.6285 77.106L41.6254 77.106Z" fill="#33691E"/>
<path d="M52.2221 64.4347C53.6141 64.4347 54.8097 64.6017 55.8099 64.9314C56.8037 65.2623 57.6295 65.722 58.2766 66.3012C58.9238 66.8836 59.3997 67.5706 59.7075 68.3623C60.0143 69.1529 60.1719 70.008 60.1719 70.9265C60.1719 71.9179 60.0122 72.8269 59.696 73.6534C59.3798 74.4778 58.8944 75.1902 58.2441 75.781C57.597 76.3687 56.7712 76.8327 55.771 77.1625C54.7708 77.4954 53.59 77.6624 52.2252 77.6624H49.8372V84.3022H45.2556V64.4313H52.222L52.2221 64.4347ZM52.2221 74.1861C53.4145 74.1861 54.2738 73.8986 54.797 73.3257C55.3213 72.756 55.586 71.9528 55.586 70.9254C55.586 70.4741 55.5167 70.0587 55.3812 69.6856C55.2456 69.3125 55.0408 68.9912 54.7634 68.7248C54.4892 68.4585 54.1425 68.2524 53.7212 68.1033C53.2999 67.9575 52.803 67.8877 52.221 67.8877L49.8372 67.8888V74.1892H52.222L52.2221 74.1861Z" fill="#33691E"/>
<path d="M71.9873 74.0078H79.0115V82.3957C77.9998 83.1409 76.924 83.681 75.7768 84.0171C74.6349 84.3532 73.4424 84.5234 72.1955 84.5234C70.566 84.5234 69.0899 84.2655 67.7524 83.7508C66.4245 83.2381 65.2825 82.53 64.3338 81.6231C63.3819 80.7205 62.6497 79.6477 62.1349 78.4046C61.6233 77.1616 61.3638 75.8161 61.3638 74.3618C61.3638 72.88 61.6107 71.5196 62.0929 70.2736C62.5803 69.0338 63.2832 67.961 64.1867 67.0616C65.0997 66.1611 66.1933 65.4645 67.4824 64.9646C68.7715 64.4646 70.2117 64.2131 71.8023 64.2131C72.6249 64.2131 73.3961 64.2797 74.122 64.416C74.848 64.5524 75.5109 64.7373 76.1223 64.9762C76.7338 65.2161 77.2885 65.4941 77.8001 65.8218C78.3065 66.1494 78.752 66.5035 79.1522 66.8851L77.8243 68.9186C77.6194 69.2336 77.3484 69.4334 77.0174 69.5031C76.6886 69.5761 76.3335 69.4936 75.9511 69.2579C75.5929 69.0402 75.2524 68.8521 74.9268 68.6914C74.6105 68.5307 74.2796 68.4007 73.9445 68.3035C73.6104 68.2031 73.2542 68.128 72.8844 68.0858C72.5136 68.0435 72.1017 68.0192 71.6437 68.0192C70.7854 68.0192 70.0079 68.1703 69.324 68.4737C68.6338 68.7802 68.0465 69.2072 67.5653 69.7642C67.0831 70.3191 66.7133 70.9829 66.4475 71.7608C66.188 72.5366 66.0524 73.4033 66.0524 74.3577C66.0524 75.4126 66.1995 76.3459 66.4895 77.1672C66.7784 77.9852 67.1881 78.6765 67.7187 79.2399C68.2429 79.8064 68.8785 80.2334 69.6129 80.5304C70.3483 80.8274 71.1667 80.9732 72.0618 80.9732C72.6165 80.9732 73.1103 80.9183 73.5621 80.8094C74.0075 80.7006 74.4445 80.5547 74.869 80.3729V77.3573H72.917C72.6281 77.3573 72.4054 77.2812 72.2394 77.1269C72.0734 76.9726 71.9925 76.7781 71.9925 76.5424L71.9904 74.0078L71.9873 74.0078Z" fill="#33691E"/>
</svg>
