<svg width="112" height="143" viewBox="0 0 112 143" fill="none" xmlns="http://www.w3.org/2000/svg">
<path d="M107.798 37.3253C107.42 37.377 107.047 37.4373 106.634 37.4373C106.363 37.4373 106.126 37.3823 105.87 37.3612V130.879C105.87 134.219 103.147 136.94 99.7922 136.94H12.1575C8.8047 136.94 6.07929 134.218 6.07929 130.879L6.07823 12.181C6.07823 8.83799 8.80472 6.12056 12.1565 6.12056H80.5996C78.6152 4.74441 77.5879 2.4266 77.5182 0.0601044H12.1578C5.45624 0.0601044 0 5.49714 0 12.1824V130.878C0 137.56 5.45597 143 12.1578 143H99.7925C106.501 143 111.95 137.56 111.95 130.878V39.6895C110.154 39.3799 108.77 38.5131 107.798 37.3251L107.798 37.3253Z" fill="#225883"/>
<path d="M108.908 42.8045C108.896 42.8045 108.872 42.8077 108.844 42.8045H77.9155C76.2046 42.8045 74.8213 41.4463 74.8213 39.7743V3.03219C74.8213 1.75327 75.6418 0.613885 76.8693 0.180551C78.0916 -0.255976 79.4675 0.117132 80.3008 1.10434L110.915 37.4676C111.583 38.0257 112 38.8522 112 39.7771C112.002 41.447 110.62 42.8045 108.908 42.8045ZM81.0103 36.744H102.289L81.0103 11.4702V36.744Z" fill="#225883"/>
<path d="M84.0035 94.6368H27.9513C21.2464 94.6368 15.7935 89.1998 15.7935 82.5146V66.2259C15.7935 59.5407 21.2464 54.1037 27.9513 54.1037H84.0008C90.7056 54.1037 96.1586 59.5407 96.1586 66.2259V82.5146C96.1607 89.1998 90.7089 94.6368 84.004 94.6368H84.0035ZM27.9513 60.1649C24.5984 60.1649 21.873 62.8834 21.873 66.2254V82.514C21.873 85.857 24.5995 88.5745 27.9513 88.5745H84.0008C87.3536 88.5745 90.079 85.856 90.079 82.514V66.2254C90.079 62.8824 87.3525 60.1649 84.0008 60.1649H27.9513Z" fill="#4A148C"/>
<path d="M35.2838 64.4347C36.6915 64.4347 37.8947 64.6017 38.9007 64.9314C39.9098 65.2623 40.7367 65.722 41.3897 66.3012C42.0427 66.8836 42.5229 67.5706 42.8335 68.3623C43.1462 69.1529 43.2988 70.008 43.2988 70.9265C43.2988 71.9179 43.1377 72.8269 42.8186 73.6534C42.5027 74.4778 42.013 75.1902 41.3568 75.781C40.7006 76.3687 39.8706 76.8327 38.8614 77.1625C37.8555 77.4954 36.6608 77.6624 35.2836 77.6624H32.8763V84.3022H28.2534V64.4313H35.2836L35.2838 64.4347ZM35.2838 74.1861C36.4869 74.1861 37.3562 73.8986 37.882 73.3257C38.4109 72.756 38.6749 71.9528 38.6749 70.9254C38.6749 70.4741 38.6081 70.0587 38.4714 69.6856C38.3346 69.3125 38.1279 68.9912 37.848 68.7248C37.5714 68.4585 37.2216 68.2524 36.7965 68.1033C36.3714 67.9575 35.8668 67.8877 35.2827 67.8877H32.8753V74.1882L35.2838 74.1892V74.1861Z" fill="#4A148C"/>
<path d="M63.0452 64.4347V84.3055H60.6378C60.2827 84.3055 59.9848 84.2484 59.741 84.1354C59.5004 84.0201 59.2608 83.8204 59.0234 83.5413L49.626 71.6886C49.6652 72.0427 49.6896 72.3851 49.7023 72.7191C49.714 73.0521 49.7235 73.3649 49.7235 73.6556V84.3075H45.6475V64.4366H48.0824C48.2828 64.4366 48.4534 64.4461 48.5902 64.4641C48.7269 64.4821 48.8488 64.5191 48.958 64.5666C49.0672 64.6153 49.1711 64.685 49.2739 64.7759C49.3715 64.8668 49.487 64.9884 49.6142 65.1459L59.0911 77.0798C59.0455 76.6951 59.0148 76.3251 58.9968 75.9679C58.9788 75.6106 58.9692 75.2713 58.9692 74.9521V64.4366H63.0452L63.0452 64.4347Z" fill="#4A148C"/>
<path d="M76.4756 74.0078H83.5598V82.3957C82.539 83.1409 81.4535 83.681 80.2979 84.0171C79.1456 84.3532 77.9393 84.5234 76.681 84.5234C75.04 84.5234 73.5475 84.2655 72.2012 83.7508C70.8581 83.2381 69.7058 82.53 68.7485 81.6231C67.7913 80.7205 67.0492 79.6477 66.533 78.4046C66.0135 77.1616 65.7549 75.8161 65.7549 74.3618C65.7549 72.88 66.0008 71.5196 66.4906 70.2736C66.9824 69.0338 67.6916 67.961 68.6032 67.0616C69.5212 66.1611 70.6279 65.4645 71.9287 64.9646C73.2294 64.4646 74.6796 64.2131 76.2875 64.2131C77.1143 64.2131 77.8956 64.2797 78.6281 64.416C79.3606 64.5524 80.0295 64.7373 80.6432 64.9762C81.2602 65.213 81.822 65.4941 82.3361 65.8218C82.8471 66.1494 83.2997 66.5035 83.7004 66.8851L82.3626 68.9186C82.1527 69.2336 81.8824 69.4334 81.5485 69.5031C81.2146 69.5761 80.8552 69.4936 80.4726 69.2579C80.1079 69.0402 79.7644 68.8521 79.439 68.6914C79.1136 68.5307 78.7828 68.4007 78.4479 68.3035C78.1108 68.2031 77.7514 68.128 77.3783 68.0858C77.0041 68.0435 76.5854 68.0192 76.1232 68.0192C75.2571 68.0192 74.4759 68.1703 73.7826 68.4737C73.0861 68.7802 72.4967 69.2072 72.0102 69.7642C71.5204 70.3191 71.1473 70.9829 70.8823 71.7608C70.6183 72.5366 70.4837 73.4033 70.4837 74.3577C70.4837 75.4126 70.63 76.3459 70.9215 77.1672C71.2162 77.9852 71.6265 78.6765 72.1618 79.2399C72.6939 79.8064 73.3321 80.2334 74.0762 80.5304C74.8183 80.8274 75.6419 80.9732 76.544 80.9732C77.1038 80.9732 77.6052 80.9183 78.0578 80.8094C78.5072 80.7006 78.9482 80.5547 79.3765 80.3729V77.3573H77.4101C77.1154 77.3573 76.8907 77.2812 76.7232 77.1269C76.5589 76.9726 76.4773 76.7781 76.4773 76.5424L76.4783 74.0078L76.4756 74.0078Z" fill="#4A148C"/>
</svg>
